<svg width="32" height="32" viewBox="0 0 32 32" fill="none" xmlns="http://www.w3.org/2000/svg">
<path fill-rule="evenodd" clip-rule="evenodd" d="M31.75 15.625C31.75 24.2544 24.7544 31.25 16.125 31.25C7.49555 31.25 0.5 24.2544 0.5 15.625C0.5 6.99555 7.49555 0 16.125 0C24.7544 0 31.75 6.99555 31.75 15.625ZM16.125 23.375C15.2966 23.375 14.625 22.7034 14.625 21.875V17.125H9.875C9.04657 17.125 8.375 16.4534 8.375 15.625C8.375 14.7966 9.04657 14.125 9.875 14.125H14.625V9.375C14.625 8.54657 15.2966 7.875 16.125 7.875C16.9534 7.875 17.625 8.54657 17.625 9.375V14.125H22.375C23.2034 14.125 23.875 14.7966 23.875 15.625C23.875 16.4534 23.2034 17.125 22.375 17.125H17.625V21.875C17.625 22.7034 16.9534 23.375 16.125 23.375Z" fill="black"/>
</svg>
