<svg width="318" height="318" viewBox="0 0 318 318" fill="none" xmlns="http://www.w3.org/2000/svg">
<g opacity="0.15">
<path d="M19.0939 38.1878C29.6391 38.1878 38.1878 29.6391 38.1878 19.0939C38.1878 8.54862 29.6391 0 19.0939 0C8.54862 0 0 8.54862 0 19.0939C0 29.6391 8.54862 38.1878 19.0939 38.1878Z" fill="#CCCCCC" fill-opacity="0.53"/>
<path d="M65.6135 38.1878C76.1588 38.1878 84.7074 29.6391 84.7074 19.0939C84.7074 8.54862 76.1588 0 65.6135 0C55.0683 0 46.5196 8.54862 46.5196 19.0939C46.5196 29.6391 55.0683 38.1878 65.6135 38.1878Z" fill="#CCCCCC" fill-opacity="0.53"/>
<path d="M131.227 19.0939C131.227 29.6391 122.678 38.1878 112.133 38.1878C101.588 38.1878 93.0393 29.6391 93.0393 19.0939C93.0393 8.54862 101.588 0 112.133 0C122.678 0 131.227 8.54862 131.227 19.0939Z" fill="#CCCCCC" fill-opacity="0.53"/>
<path d="M158.653 38.1878C169.198 38.1878 177.747 29.6391 177.747 19.0939C177.747 8.54862 169.198 0 158.653 0C148.108 0 139.559 8.54862 139.559 19.0939C139.559 29.6391 148.108 38.1878 158.653 38.1878Z" fill="#CCCCCC" fill-opacity="0.53"/>
<path d="M224.266 19.0939C224.266 29.6391 215.718 38.1878 205.172 38.1878C194.627 38.1878 186.079 29.6391 186.079 19.0939C186.079 8.54862 194.627 0 205.172 0C215.718 0 224.266 8.54862 224.266 19.0939Z" fill="#CCCCCC" fill-opacity="0.53"/>
<path d="M251.692 38.1878C262.237 38.1878 270.786 29.6391 270.786 19.0939C270.786 8.54862 262.237 0 251.692 0C241.147 0 232.598 8.54862 232.598 19.0939C232.598 29.6391 241.147 38.1878 251.692 38.1878Z" fill="#CCCCCC" fill-opacity="0.53"/>
<path d="M317.306 19.0939C317.306 29.6391 308.757 38.1878 298.212 38.1878C287.667 38.1878 279.118 29.6391 279.118 19.0939C279.118 8.54862 287.667 0 298.212 0C308.757 0 317.306 8.54862 317.306 19.0939Z" fill="#CCCCCC" fill-opacity="0.53"/>
<path d="M19.0939 84.7074C29.6391 84.7074 38.1878 76.1588 38.1878 65.6135C38.1878 55.0683 29.6391 46.5196 19.0939 46.5196C8.54862 46.5196 0 55.0683 0 65.6135C0 76.1588 8.54862 84.7074 19.0939 84.7074Z" fill="#CCCCCC" fill-opacity="0.53"/>
<path d="M84.7074 65.6135C84.7074 76.1588 76.1588 84.7074 65.6135 84.7074C55.0683 84.7074 46.5196 76.1588 46.5196 65.6135C46.5196 55.0683 55.0683 46.5196 65.6135 46.5196C76.1588 46.5196 84.7074 55.0683 84.7074 65.6135Z" fill="#CCCCCC" fill-opacity="0.53"/>
<path d="M112.133 84.7074C122.678 84.7074 131.227 76.1588 131.227 65.6135C131.227 55.0683 122.678 46.5196 112.133 46.5196C101.588 46.5196 93.0393 55.0683 93.0393 65.6135C93.0393 76.1588 101.588 84.7074 112.133 84.7074Z" fill="#CCCCCC" fill-opacity="0.53"/>
<path d="M177.747 65.6135C177.747 76.1588 169.198 84.7074 158.653 84.7074C148.108 84.7074 139.559 76.1588 139.559 65.6135C139.559 55.0683 148.108 46.5196 158.653 46.5196C169.198 46.5196 177.747 55.0683 177.747 65.6135Z" fill="#CCCCCC" fill-opacity="0.53"/>
<path d="M205.172 84.7074C215.718 84.7074 224.266 76.1588 224.266 65.6135C224.266 55.0683 215.718 46.5196 205.172 46.5196C194.627 46.5196 186.079 55.0683 186.079 65.6135C186.079 76.1588 194.627 84.7074 205.172 84.7074Z" fill="#CCCCCC" fill-opacity="0.53"/>
<path d="M270.786 65.6135C270.786 76.1588 262.237 84.7074 251.692 84.7074C241.147 84.7074 232.598 76.1588 232.598 65.6135C232.598 55.0683 241.147 46.5196 251.692 46.5196C262.237 46.5196 270.786 55.0683 270.786 65.6135Z" fill="#CCCCCC" fill-opacity="0.53"/>
<path d="M298.212 84.7074C308.757 84.7074 317.306 76.1588 317.306 65.6135C317.306 55.0683 308.757 46.5196 298.212 46.5196C287.667 46.5196 279.118 55.0683 279.118 65.6135C279.118 76.1588 287.667 84.7074 298.212 84.7074Z" fill="#CCCCCC" fill-opacity="0.53"/>
<path d="M38.1878 112.133C38.1878 122.678 29.6391 131.227 19.0939 131.227C8.54862 131.227 0 122.678 0 112.133C0 101.588 8.54862 93.0393 19.0939 93.0393C29.6391 93.0393 38.1878 101.588 38.1878 112.133Z" fill="#CCCCCC" fill-opacity="0.53"/>
<path d="M65.6135 131.227C76.1588 131.227 84.7074 122.678 84.7074 112.133C84.7074 101.588 76.1588 93.0393 65.6135 93.0393C55.0683 93.0393 46.5196 101.588 46.5196 112.133C46.5196 122.678 55.0683 131.227 65.6135 131.227Z" fill="#CCCCCC" fill-opacity="0.53"/>
<path d="M270.786 112.133C270.786 122.678 262.237 131.227 251.692 131.227C241.147 131.227 232.598 122.678 232.598 112.133C232.598 101.588 241.147 93.0393 251.692 93.0393C262.237 93.0393 270.786 101.588 270.786 112.133Z" fill="#CCCCCC" fill-opacity="0.53"/>
<path d="M298.212 131.227C308.757 131.227 317.306 122.678 317.306 112.133C317.306 101.588 308.757 93.0393 298.212 93.0393C287.667 93.0393 279.118 101.588 279.118 112.133C279.118 122.678 287.667 131.227 298.212 131.227Z" fill="#CCCCCC" fill-opacity="0.53"/>
<path d="M38.1878 158.653C38.1878 169.198 29.6391 177.747 19.0939 177.747C8.54862 177.747 0 169.198 0 158.653C0 148.108 8.54862 139.559 19.0939 139.559C29.6391 139.559 38.1878 148.108 38.1878 158.653Z" fill="#CCCCCC" fill-opacity="0.53"/>
<path d="M65.6135 177.747C76.1588 177.747 84.7074 169.198 84.7074 158.653C84.7074 148.108 76.1588 139.559 65.6135 139.559C55.0683 139.559 46.5196 148.108 46.5196 158.653C46.5196 169.198 55.0683 177.747 65.6135 177.747Z" fill="#CCCCCC" fill-opacity="0.53"/>
<path d="M270.786 158.653C270.786 169.198 262.237 177.747 251.692 177.747C241.147 177.747 232.598 169.198 232.598 158.653C232.598 148.108 241.147 139.559 251.692 139.559C262.237 139.559 270.786 148.108 270.786 158.653Z" fill="#CCCCCC" fill-opacity="0.53"/>
<path d="M298.212 177.747C308.757 177.747 317.306 169.198 317.306 158.653C317.306 148.108 308.757 139.559 298.212 139.559C287.667 139.559 279.118 148.108 279.118 158.653C279.118 169.198 287.667 177.747 298.212 177.747Z" fill="#CCCCCC" fill-opacity="0.53"/>
<path d="M38.1878 205.172C38.1878 215.718 29.6391 224.266 19.0939 224.266C8.54862 224.266 0 215.718 0 205.172C0 194.627 8.54862 186.079 19.0939 186.079C29.6391 186.079 38.1878 194.627 38.1878 205.172Z" fill="#CCCCCC" fill-opacity="0.53"/>
<path d="M65.6135 224.266C76.1588 224.266 84.7074 215.718 84.7074 205.172C84.7074 194.627 76.1588 186.079 65.6135 186.079C55.0683 186.079 46.5196 194.627 46.5196 205.172C46.5196 215.718 55.0683 224.266 65.6135 224.266Z" fill="#CCCCCC" fill-opacity="0.53"/>
<path d="M270.786 205.172C270.786 215.718 262.237 224.266 251.692 224.266C241.147 224.266 232.598 215.718 232.598 205.172C232.598 194.627 241.147 186.079 251.692 186.079C262.237 186.079 270.786 194.627 270.786 205.172Z" fill="#CCCCCC" fill-opacity="0.53"/>
<path d="M298.212 224.266C308.757 224.266 317.306 215.718 317.306 205.172C317.306 194.627 308.757 186.079 298.212 186.079C287.667 186.079 279.118 194.627 279.118 205.172C279.118 215.718 287.667 224.266 298.212 224.266Z" fill="#CCCCCC" fill-opacity="0.53"/>
<path d="M38.1878 251.692C38.1878 262.237 29.6391 270.786 19.0939 270.786C8.54862 270.786 0 262.237 0 251.692C0 241.147 8.54862 232.598 19.0939 232.598C29.6391 232.598 38.1878 241.147 38.1878 251.692Z" fill="#CCCCCC" fill-opacity="0.53"/>
<path d="M65.6135 270.786C76.1588 270.786 84.7074 262.237 84.7074 251.692C84.7074 241.147 76.1588 232.598 65.6135 232.598C55.0683 232.598 46.5196 241.147 46.5196 251.692C46.5196 262.237 55.0683 270.786 65.6135 270.786Z" fill="#CCCCCC" fill-opacity="0.53"/>
<path d="M131.227 251.692C131.227 262.237 122.678 270.786 112.133 270.786C101.588 270.786 93.0393 262.237 93.0393 251.692C93.0393 241.147 101.588 232.598 112.133 232.598C122.678 232.598 131.227 241.147 131.227 251.692Z" fill="#CCCCCC" fill-opacity="0.53"/>
<path d="M158.653 270.786C169.198 270.786 177.747 262.237 177.747 251.692C177.747 241.147 169.198 232.598 158.653 232.598C148.108 232.598 139.559 241.147 139.559 251.692C139.559 262.237 148.108 270.786 158.653 270.786Z" fill="#CCCCCC" fill-opacity="0.53"/>
<path d="M224.266 251.692C224.266 262.237 215.718 270.786 205.172 270.786C194.627 270.786 186.079 262.237 186.079 251.692C186.079 241.147 194.627 232.598 205.172 232.598C215.718 232.598 224.266 241.147 224.266 251.692Z" fill="#CCCCCC" fill-opacity="0.53"/>
<path d="M251.692 270.786C262.237 270.786 270.786 262.237 270.786 251.692C270.786 241.147 262.237 232.598 251.692 232.598C241.147 232.598 232.598 241.147 232.598 251.692C232.598 262.237 241.147 270.786 251.692 270.786Z" fill="#CCCCCC" fill-opacity="0.53"/>
<path d="M317.306 251.692C317.306 262.237 308.757 270.786 298.212 270.786C287.667 270.786 279.118 262.237 279.118 251.692C279.118 241.147 287.667 232.598 298.212 232.598C308.757 232.598 317.306 241.147 317.306 251.692Z" fill="#CCCCCC" fill-opacity="0.53"/>
<path d="M19.0939 317.306C29.6391 317.306 38.1878 308.757 38.1878 298.212C38.1878 287.667 29.6391 279.118 19.0939 279.118C8.54862 279.118 0 287.667 0 298.212C0 308.757 8.54862 317.306 19.0939 317.306Z" fill="#CCCCCC" fill-opacity="0.53"/>
<path d="M84.7074 298.212C84.7074 308.757 76.1588 317.306 65.6135 317.306C55.0683 317.306 46.5196 308.757 46.5196 298.212C46.5196 287.667 55.0683 279.118 65.6135 279.118C76.1588 279.118 84.7074 287.667 84.7074 298.212Z" fill="#CCCCCC" fill-opacity="0.53"/>
<path d="M112.133 317.306C122.678 317.306 131.227 308.757 131.227 298.212C131.227 287.667 122.678 279.118 112.133 279.118C101.588 279.118 93.0393 287.667 93.0393 298.212C93.0393 308.757 101.588 317.306 112.133 317.306Z" fill="#CCCCCC" fill-opacity="0.53"/>
<path d="M177.747 298.212C177.747 308.757 169.198 317.306 158.653 317.306C148.108 317.306 139.559 308.757 139.559 298.212C139.559 287.667 148.108 279.118 158.653 279.118C169.198 279.118 177.747 287.667 177.747 298.212Z" fill="#CCCCCC" fill-opacity="0.53"/>
<path d="M205.172 317.306C215.718 317.306 224.266 308.757 224.266 298.212C224.266 287.667 215.718 279.118 205.172 279.118C194.627 279.118 186.079 287.667 186.079 298.212C186.079 308.757 194.627 317.306 205.172 317.306Z" fill="#CCCCCC" fill-opacity="0.53"/>
<path d="M270.786 298.212C270.786 308.757 262.237 317.306 251.692 317.306C241.147 317.306 232.598 308.757 232.598 298.212C232.598 287.667 241.147 279.118 251.692 279.118C262.237 279.118 270.786 287.667 270.786 298.212Z" fill="#CCCCCC" fill-opacity="0.53"/>
<path d="M298.212 317.306C308.757 317.306 317.306 308.757 317.306 298.212C317.306 287.667 308.757 279.118 298.212 279.118C287.667 279.118 279.118 287.667 279.118 298.212C279.118 308.757 287.667 317.306 298.212 317.306Z" fill="#CCCCCC" fill-opacity="0.53"/>
<path fill-rule="evenodd" clip-rule="evenodd" d="M140.253 140.253H177.747V177.747H140.253V140.253ZM152.751 152.751H165.249V165.249H152.751V152.751Z" fill="#F4F1D0"/>
<path fill-rule="evenodd" clip-rule="evenodd" d="M152.751 113.869H165.249V101.371H177.747V113.869H188.161C196.981 113.869 204.131 121.019 204.131 129.838V140.253H216.629V152.751H204.131V165.249H216.629V177.747H204.131V188.161C204.131 196.981 196.981 204.131 188.161 204.131H177.747V216.629H165.249V204.131H152.751V216.629H140.253V204.131H129.838C121.019 204.131 113.869 196.981 113.869 188.161V177.747H101.371V165.249H113.869V152.751H101.371V140.253H113.869V129.838C113.869 121.019 121.019 113.869 129.838 113.869H140.253V101.371H152.751V113.869ZM129.838 126.367H188.161C190.079 126.367 191.633 127.921 191.633 129.838V188.161C191.633 190.079 190.079 191.633 188.161 191.633H129.838C127.921 191.633 126.367 190.079 126.367 188.161V129.838C126.367 127.921 127.921 126.367 129.838 126.367Z" fill="#F4F1D0"/>
</g>
</svg>
