<svg width="318" height="318" viewBox="0 0 318 318" fill="none" xmlns="http://www.w3.org/2000/svg">
<g opacity="0.15">
<path fill-rule="evenodd" clip-rule="evenodd" d="M195.105 159C195.105 178.94 178.94 195.105 159 195.105C139.06 195.105 122.895 178.94 122.895 159C122.895 139.06 139.06 122.895 159 122.895C178.94 122.895 195.105 139.06 195.105 159ZM175.664 159C175.664 168.203 168.203 175.664 159 175.664C149.797 175.664 142.336 168.203 142.336 159C142.336 149.797 149.797 142.336 159 142.336C168.203 142.336 175.664 149.797 175.664 159Z" fill="white" fill-opacity="0.8"/>
<path fill-rule="evenodd" clip-rule="evenodd" d="M235.376 159C235.376 201.181 201.181 235.376 159 235.376C116.819 235.376 82.6245 201.181 82.6245 159C82.6245 116.819 116.819 82.6245 159 82.6245C201.181 82.6245 235.376 116.819 235.376 159ZM215.934 159C215.934 190.444 190.444 215.934 159 215.934C127.556 215.934 102.065 190.444 102.065 159C102.065 127.556 127.556 102.065 159 102.065C190.444 102.065 215.934 127.556 215.934 159Z" fill="white" fill-opacity="0.8"/>
<path fill-rule="evenodd" clip-rule="evenodd" d="M159 275.646C223.422 275.646 275.646 223.422 275.646 159C275.646 94.578 223.422 42.3537 159 42.3537C94.578 42.3537 42.3537 94.578 42.3537 159C42.3537 223.422 94.578 275.646 159 275.646ZM159 256.205C212.685 256.205 256.205 212.685 256.205 159C256.205 105.315 212.685 61.7948 159 61.7948C105.315 61.7948 61.7948 105.315 61.7948 159C61.7948 212.685 105.315 256.205 159 256.205Z" fill="white" fill-opacity="0.8"/>
<path fill-rule="evenodd" clip-rule="evenodd" d="M318 159C318 246.813 246.813 318 159 318C71.1867 318 0 246.813 0 159C0 71.1867 71.1867 0 159 0C246.813 0 318 71.1867 318 159ZM298.559 159C298.559 236.076 236.076 298.559 159 298.559C81.9237 298.559 19.441 236.076 19.441 159C19.441 81.9237 81.9237 19.441 159 19.441C236.076 19.441 298.559 81.9237 298.559 159Z" fill="white" fill-opacity="0.8"/>
</g>
</svg>
