<svg width="370" height="329" viewBox="0 0 370 329" fill="none" xmlns="http://www.w3.org/2000/svg">
<g clip-path="url(#clip0_890_706)">
<g clip-path="url(#clip1_890_706)">
<path d="M87.8277 101.541C100.987 101.541 111.655 90.8983 111.655 77.7703C111.655 64.6423 100.987 54 87.8277 54C74.668 54 64 64.6423 64 77.7703C64 90.8983 74.668 101.541 87.8277 101.541Z" fill="#F4F1D0"/>
<path d="M145.787 101.541C158.946 101.541 169.614 90.8983 169.614 77.7703C169.614 64.6423 158.946 54 145.787 54C132.627 54 121.959 64.6423 121.959 77.7703C121.959 90.8983 132.627 101.541 145.787 101.541Z" fill="#F4F1D0"/>
<path d="M203.747 101.541C216.906 101.541 227.574 90.8983 227.574 77.7703C227.574 64.6423 216.906 54 203.747 54C190.587 54 179.919 64.6423 179.919 77.7703C179.919 90.8983 190.587 101.541 203.747 101.541Z" fill="#F4F1D0"/>
<path d="M87.8277 159.36C100.987 159.36 111.655 148.718 111.655 135.59C111.655 122.462 100.987 111.82 87.8277 111.82C74.668 111.82 64 122.462 64 135.59C64 148.718 74.668 159.36 87.8277 159.36Z" fill="#F4F1D0"/>
<path d="M145.787 159.36C158.946 159.36 169.614 148.718 169.614 135.59C169.614 122.462 158.946 111.82 145.787 111.82C132.627 111.82 121.959 122.462 121.959 135.59C121.959 148.718 132.627 159.36 145.787 159.36Z" fill="#F4F1D0"/>
<path d="M203.747 159.36C216.906 159.36 227.574 148.718 227.574 135.59C227.574 122.462 216.906 111.82 203.747 111.82C190.587 111.82 179.919 122.462 179.919 135.59C179.919 148.718 190.587 159.36 203.747 159.36Z" fill="#F4F1D0"/>
<path d="M87.8277 217.18C100.987 217.18 111.655 206.538 111.655 193.41C111.655 180.282 100.987 169.64 87.8277 169.64C74.668 169.64 64 180.282 64 193.41C64 206.538 74.668 217.18 87.8277 217.18Z" fill="#F4F1D0"/>
<path d="M145.787 217.18C158.946 217.18 169.614 206.538 169.614 193.41C169.614 180.282 158.946 169.64 145.787 169.64C132.627 169.64 121.959 180.282 121.959 193.41C121.959 206.538 132.627 217.18 145.787 217.18Z" fill="#F4F1D0"/>
<path d="M203.747 217.18C216.906 217.18 227.574 206.538 227.574 193.41C227.574 180.282 216.906 169.64 203.747 169.64C190.587 169.64 179.919 180.282 179.919 193.41C179.919 206.538 190.587 217.18 203.747 217.18Z" fill="#F4F1D0"/>
<path d="M87.8277 275C100.987 275 111.655 264.358 111.655 251.23C111.655 238.102 100.987 227.459 87.8277 227.459C74.668 227.459 64 238.102 64 251.23C64 264.358 74.668 275 87.8277 275Z" fill="#F4F1D0"/>
<path d="M145.787 275C158.946 275 169.614 264.358 169.614 251.23C169.614 238.102 158.946 227.459 145.787 227.459C132.627 227.459 121.959 238.102 121.959 251.23C121.959 264.358 132.627 275 145.787 275Z" fill="#F4F1D0"/>
<path d="M203.747 275C216.906 275 227.574 264.358 227.574 251.23C227.574 238.102 216.906 227.459 203.747 227.459C190.587 227.459 179.919 238.102 179.919 251.23C179.919 264.358 190.587 275 203.747 275Z" fill="#F4F1D0"/>
<path d="M283.172 101.541C296.332 101.541 307 90.8983 307 77.7703C307 64.6423 296.332 54 283.172 54C270.013 54 259.345 64.6423 259.345 77.7703C259.345 90.8983 270.013 101.541 283.172 101.541Z" fill="black" fill-opacity="0.2"/>
<path d="M283.172 159.36C296.332 159.36 307 148.718 307 135.59C307 122.462 296.332 111.82 283.172 111.82C270.013 111.82 259.345 122.462 259.345 135.59C259.345 148.718 270.013 159.36 283.172 159.36Z" fill="black" fill-opacity="0.2"/>
<path d="M283.172 217.18C296.332 217.18 307 206.538 307 193.41C307 180.282 296.332 169.64 283.172 169.64C270.013 169.64 259.345 180.282 259.345 193.41C259.345 206.538 270.013 217.18 283.172 217.18Z" fill="black" fill-opacity="0.2"/>
<path d="M283.172 275C296.332 275 307 264.358 307 251.23C307 238.102 296.332 227.459 283.172 227.459C270.013 227.459 259.345 238.102 259.345 251.23C259.345 264.358 270.013 275 283.172 275Z" fill="black" fill-opacity="0.2"/>
</g>
<g filter="url(#filter0_d_890_706)">
<path d="M0 40C0 17.9086 17.9086 0 40 0H330C352.091 0 370 17.9086 370 40V283C370 305.091 352.091 323 330 323H40C17.9086 323 0 305.091 0 283V40Z" fill="#181429" fill-opacity="0.1"/>
</g>
</g>
<defs>
<filter id="filter0_d_890_706" x="-4" y="0" width="378" height="331" filterUnits="userSpaceOnUse" color-interpolation-filters="sRGB">
<feFlood flood-opacity="0" result="BackgroundImageFix"/>
<feColorMatrix in="SourceAlpha" type="matrix" values="0 0 0 0 0 0 0 0 0 0 0 0 0 0 0 0 0 0 127 0" result="hardAlpha"/>
<feOffset dy="4"/>
<feGaussianBlur stdDeviation="2"/>
<feComposite in2="hardAlpha" operator="out"/>
<feColorMatrix type="matrix" values="0 0 0 0 0 0 0 0 0 0 0 0 0 0 0 0 0 0 0.25 0"/>
<feBlend mode="normal" in2="BackgroundImageFix" result="effect1_dropShadow_890_706"/>
<feBlend mode="normal" in="SourceGraphic" in2="effect1_dropShadow_890_706" result="shape"/>
</filter>
<clipPath id="clip0_890_706">
<rect width="370" height="329" rx="40" fill="white"/>
</clipPath>
<clipPath id="clip1_890_706">
<rect width="243" height="221" fill="white" transform="translate(64 54)"/>
</clipPath>
</defs>
</svg>
