<svg width="292" height="80" viewBox="0 0 292 80" fill="none" xmlns="http://www.w3.org/2000/svg">
<g clip-path="url(#clip0_111_237)">
<path d="M108.675 43.0213L95.6951 21.4586H91.5948V55.7986H95.1846V27.4231L107.116 47.1381H110.152L121.985 27.4335V55.7986H125.532V21.4586H121.567L108.675 43.0213Z" fill="white"/>
<path d="M134.53 24.0297C133.292 24.0297 132.32 24.9405 132.32 26.1063C132.32 27.2721 133.292 28.2246 134.53 28.2246C135.768 28.2246 136.741 27.293 136.741 26.1063C136.741 24.9197 135.768 24.0297 134.53 24.0297Z" fill="white"/>
<path d="M136.279 32.0656H132.782V55.7934H136.279V32.0656Z" fill="white"/>
<path d="M153.782 32.0656H152.712C147.417 32.0656 143.116 36.1928 143.116 41.2621V55.7934H146.614V41.5067C146.614 37.9988 149.59 35.1467 153.25 35.1467C156.91 35.1467 159.886 37.9988 159.886 41.5067V55.7934H163.384V41.2621C163.384 36.1876 159.077 32.0656 153.788 32.0656H153.782Z" fill="white"/>
<path d="M190.738 35.2508C190.738 35.433 190.738 35.6047 190.738 35.7713C188.789 33.0649 185.188 31.3525 181.131 31.3525C173.675 31.3525 168.266 36.63 168.266 43.9061C168.266 51.1821 173.675 56.5012 181.131 56.5012C185.319 56.5012 188.914 54.6952 190.874 51.7546C190.874 51.8743 190.874 51.994 190.874 52.1189V55.7934H194.23V21.4586H190.733V35.256L190.738 35.2508ZM190.831 43.9113C190.831 49.3709 186.85 53.3368 181.365 53.3368C175.88 53.3368 171.856 49.2824 171.856 43.9113C171.856 38.5401 175.945 34.4857 181.365 34.4857C186.785 34.4857 190.831 38.4516 190.831 43.9113Z" fill="white"/>
<path d="M214.259 31.3578C210.034 31.3578 206.374 33.1273 204.375 36.0003C204.375 35.8597 204.375 35.714 204.375 35.5631V32.0656H201.019V66.01H204.516V52.4781C204.516 52.3479 204.516 52.223 204.516 52.0981C206.406 54.8305 209.942 56.5064 214.123 56.5064C221.58 56.5064 226.989 51.2081 226.989 43.9113C226.989 36.6144 221.514 31.3578 214.259 31.3578ZM223.448 43.9113C223.448 49.2824 219.358 53.3368 213.939 53.3368C208.519 53.3368 204.429 49.3709 204.429 43.9113C204.429 38.4516 208.432 34.4857 213.939 34.4857C219.445 34.4857 223.448 38.5401 223.448 43.9113Z" fill="white"/>
<path d="M235.368 21.4586H231.876V55.7986H243.058V52.6706H235.368V21.4586Z" fill="white"/>
<path d="M256.369 31.3577C248.983 31.3577 243.411 36.7549 243.411 43.9113C243.411 51.0676 248.983 56.5064 256.369 56.5064C260.54 56.5064 264.167 54.7941 266.579 51.6765L266.856 51.3226L264.667 49.1575L264.281 49.6259C262.305 52.0512 259.584 53.3316 256.418 53.3316C251.552 53.3316 247.783 50.1568 247.071 45.5351H268.545V45.0146C268.545 44.8897 268.555 44.6867 268.566 44.489C268.577 44.2704 268.588 44.0466 268.588 43.906C268.588 36.63 263.451 31.3525 256.369 31.3525V31.3577ZM247.061 42.4123C247.734 37.7178 251.465 34.4857 256.32 34.4857C261.175 34.4857 264.596 37.7178 265.053 42.4123H247.061Z" fill="white"/>
<path d="M282.806 43.7343L291.924 32.0656H287.737L280.552 41.4651L273.324 32.0656H269.039L278.255 43.7395L269.012 55.7986H273.188L280.46 46.0139L287.78 55.7986H292L282.806 43.7343Z" fill="white"/>
<g clip-path="url(#clip1_111_237)">
<path d="M58.2571 72.547C60.5696 72.547 62.4442 69.3873 62.4442 65.4896C62.4442 61.5919 60.5696 58.4321 58.2571 58.4321C55.9446 58.4321 54.07 61.5919 54.07 65.4896C54.07 69.3873 55.9446 72.547 58.2571 72.547Z" fill="url(#paint0_linear_111_237)"/>
<path d="M39.847 21.2296C42.1594 21.2296 44.0341 18.0698 44.0341 14.1721C44.0341 10.2744 42.1594 7.11469 39.847 7.11469C37.5345 7.11469 35.6599 10.2744 35.6599 14.1721C35.6599 18.0698 37.5345 21.2296 39.847 21.2296Z" fill="url(#paint1_linear_111_237)"/>
<path d="M40.3465 55.5279C42.536 55.5279 44.311 52.5336 44.311 48.84C44.311 45.1464 42.536 42.1521 40.3465 42.1521C38.157 42.1521 36.3821 45.1464 36.3821 48.84C36.3821 52.5336 38.157 55.5279 40.3465 55.5279Z" fill="url(#paint2_linear_111_237)"/>
<path d="M58.3114 39.3312C60.5849 39.3312 62.428 36.2227 62.428 32.3883C62.428 28.5538 60.5849 25.4453 58.3114 25.4453C56.038 25.4453 54.1949 28.5538 54.1949 32.3883C54.1949 36.2227 56.038 39.3312 58.3114 39.3312Z" fill="url(#paint3_linear_111_237)"/>
<path d="M56.9972 0H43.5398C30.1368 0 19.2644 9.98243 18.6725 22.7806H18.0588C10.3417 22.7806 4.05835 28.7971 4.05835 36.198C4.05835 43.599 10.3417 49.6155 18.0588 49.6155H23.4026C24.9178 50.9895 31.9018 56.8655 40.6181 56.8655C49.3344 56.8655 55.9219 51.2914 57.6109 49.8133C59.2781 51.0416 62.8516 53.9457 69.3956 60.3682C66.4956 58.8277 62.6017 57.36 58.306 57.36C50.0079 57.36 43.214 62.7467 41.3295 64.3966C41.2263 64.4903 41.1395 64.5683 41.0689 64.6256L40.0859 65.5L39.4559 66.0985L39.3364 66.2234L39.3962 66.3795C42.4646 74.5247 50.6052 79.9948 59.6474 79.9948C65.3986 79.9948 70.8022 77.8505 74.8698 73.9522C78.9103 70.08 81.1532 64.9275 81.1749 59.447L81.1966 23.1917C81.202 10.404 70.346 0 56.9972 0ZM58.2571 71.7038C56.4976 71.7038 54.9498 68.7997 54.9498 65.4895C54.9498 62.1794 56.4922 59.2752 58.2571 59.2752C60.0221 59.2752 61.5645 62.1794 61.5645 65.4895C61.5645 68.7997 60.0221 71.7038 58.2571 71.7038ZM55.0259 59.3585C53.8691 60.8314 53.1957 63.059 53.1957 65.4948C53.1957 67.9305 53.8202 69.9655 54.8847 71.4384C49.1389 70.335 44.4468 66.7855 42.8067 65.4115C44.4631 64.0271 49.215 60.4359 55.0259 59.3585ZM61.6188 71.454C62.6941 69.9811 63.324 67.8108 63.324 65.4895C63.324 63.0434 62.6452 60.8054 61.4776 59.3325C67.3482 60.3786 72.149 64.0062 73.8217 65.4063C72.1653 66.7907 67.4242 70.3715 61.6242 71.454H61.6188ZM58.3115 73.4526C66.7454 73.4526 73.6099 67.8993 75.3531 66.3587L76.6402 65.2085L76.4556 65.0159C66.6314 54.8045 61.0866 50.3077 58.936 48.7047C67.2668 42.225 74.8915 34.1474 75.7496 33.2314L76.3632 32.6485L75.7387 32.05C75.4183 31.7481 67.8478 24.597 58.306 24.597C50.2359 24.597 43.5996 29.6819 41.4925 31.4931C36.5016 27.3294 31.6845 22.3226 28.1708 18.4295C31.3587 20.3396 35.7359 22.2133 40.6344 22.2133C50.1708 22.2133 57.7467 15.0673 58.0671 14.7603L58.6916 14.1617L58.0671 13.5632C57.7521 13.2613 50.1708 6.11021 40.6344 6.11021C35.8553 6.11021 31.5759 7.89539 28.4315 9.73782C32.7924 5.45443 38.7445 3.02908 45.0496 3.02908H56.9918C68.5864 3.02908 78.0196 12.0695 78.0196 23.1813L78.0088 59.3533C78.0088 69.0599 69.7703 76.9553 59.642 76.9553C53.1034 76.9553 47.173 73.7024 43.8657 68.3833C46.9612 70.5484 52.2345 73.437 58.2952 73.437L58.3115 73.4526ZM43.7679 8.09316C49.6494 9.12888 54.4665 12.7669 56.15 14.1721C54.4719 15.5774 49.6549 19.2154 43.7679 20.2511C44.8975 18.7782 45.5601 16.5663 45.5601 14.1721C45.5601 11.778 44.903 9.56606 43.7679 8.09316ZM37.1859 14.1721C37.1859 10.862 38.7282 7.95784 40.4932 7.95784C42.2582 7.95784 43.8005 10.862 43.8005 14.1721C43.8005 17.4823 42.2582 20.3864 40.4932 20.3864C38.7282 20.3864 37.1859 17.4823 37.1859 14.1721ZM35.4263 14.1721C35.4263 16.5298 36.0671 18.7158 37.1696 20.1887C31.4401 19.0749 26.7643 15.5357 25.1296 14.1721C26.7643 12.8033 31.4401 9.2694 37.1696 8.15562C36.0671 9.62852 35.4263 11.8197 35.4263 14.1721ZM63.2969 32.3831C63.2969 30.1295 62.7212 28.0736 61.7002 26.6216C67.4677 27.7197 72.1707 31.2797 73.8162 32.6537C72.1001 34.085 67.1799 37.7958 61.1952 38.7743C62.5094 37.3535 63.2969 34.9906 63.2969 32.3831ZM53.3206 32.3831C53.3206 34.9906 54.1081 37.343 55.4169 38.7691C51.7511 38.1654 48.5253 36.5415 46.4127 35.2404C45.2831 34.4753 44.0883 33.5905 42.8501 32.6069C44.5011 31.238 49.1932 27.7041 54.9172 26.6164C53.8963 28.0684 53.3206 30.1243 53.3206 32.3831ZM58.0236 26.2937H58.5558C60.2122 26.5487 61.559 29.2811 61.559 32.3831C61.559 35.6359 60.0384 38.4933 58.3115 38.4933C56.5845 38.4933 55.0639 35.6359 55.0639 32.3831C55.0639 29.1302 56.4107 26.5487 58.0291 26.2937H58.0236ZM37.8104 54.9554C31.7877 53.9978 26.8349 50.2609 25.1079 48.8192C26.8349 47.3723 31.8094 43.6302 37.8484 42.6778C36.5831 44.0518 35.8228 46.321 35.8228 48.8348C35.8228 51.3486 36.5668 53.571 37.8104 54.9502V54.9554ZM43.7571 48.84C43.7571 51.968 42.3016 54.716 40.6398 54.716C38.978 54.716 37.5226 51.9732 37.5226 48.84C37.5226 45.7068 38.978 42.964 40.6398 42.964C42.3016 42.964 43.7571 45.7068 43.7571 48.84ZM45.4515 48.84C45.4515 46.3314 44.6912 44.0622 43.4367 42.6882C49.4539 43.6458 54.4067 47.3827 56.1283 48.8192C54.4122 50.2557 49.4756 53.977 43.4747 54.945C44.7129 53.5658 45.4569 51.3122 45.4569 48.8348L45.4515 48.84ZM40.6181 40.7729C36.0943 40.7729 30.4572 43.4949 27.4974 45.1187C26.2972 45.7745 25.1785 46.5292 24.1575 47.3723L23.7013 46.7269C22.474 44.9209 21.8223 42.8287 21.8223 40.6792V25.3048C21.8223 22.1144 22.512 19.0384 23.8697 16.1551C26.7317 19.4965 33.5418 27.1524 40.6344 33.0128L40.8733 33.2418C41.1883 33.5437 48.7642 40.6948 58.306 40.6948C61.5319 40.6948 64.8446 39.8933 68.1791 38.3007C65.2845 41.0279 61.3961 44.5202 57.3719 47.6221C55.3191 45.8682 48.6556 40.7729 40.6127 40.7729H40.6181ZM19.9704 46.524H18.0642C12.123 46.524 7.28964 41.8919 7.28964 36.1928C7.28964 30.4938 12.123 25.8669 18.0642 25.8669H18.6508V40.6792C18.6508 42.683 19.1069 44.6972 19.9704 46.524Z" fill="url(#paint4_linear_111_237)"/>
</g>
</g>
<defs>
<linearGradient id="paint0_linear_111_237" x1="58.2571" y1="10.0605" x2="58.2571" y2="70.2049" gradientUnits="userSpaceOnUse">
<stop stop-color="#E02DA7"/>
<stop offset="0.04" stop-color="#DA2EA8"/>
<stop offset="0.09" stop-color="#CB32AC"/>
<stop offset="0.14" stop-color="#B139B3"/>
<stop offset="0.2" stop-color="#8E43BC"/>
<stop offset="0.26" stop-color="#604FC8"/>
<stop offset="0.33" stop-color="#295FD6"/>
<stop offset="0.36" stop-color="#0569E0"/>
<stop offset="0.56" stop-color="#0A76BA"/>
<stop offset="1" stop-color="#17995E"/>
</linearGradient>
<linearGradient id="paint1_linear_111_237" x1="39.847" y1="-6.49536" x2="39.847" y2="53.6491" gradientUnits="userSpaceOnUse">
<stop stop-color="#E02DA7"/>
<stop offset="0.09" stop-color="#DC2EA7"/>
<stop offset="0.18" stop-color="#D031AA"/>
<stop offset="0.27" stop-color="#BD36AF"/>
<stop offset="0.35" stop-color="#A33DB6"/>
<stop offset="0.43" stop-color="#8047BF"/>
<stop offset="0.52" stop-color="#5652CA"/>
<stop offset="0.6" stop-color="#2560D7"/>
<stop offset="0.64" stop-color="#0569E0"/>
<stop offset="0.7" stop-color="#066DD2"/>
<stop offset="0.8" stop-color="#0B7AB0"/>
<stop offset="0.94" stop-color="#138E79"/>
<stop offset="1" stop-color="#17995E"/>
</linearGradient>
<linearGradient id="paint2_linear_111_237" x1="40.3465" y1="19.715" x2="40.3465" y2="79.8595" gradientUnits="userSpaceOnUse">
<stop stop-color="#E02DA7"/>
<stop offset="0.28" stop-color="#5D50C8"/>
<stop offset="0.48" stop-color="#0569E0"/>
<stop offset="0.56" stop-color="#066DD2"/>
<stop offset="0.71" stop-color="#0B7AB0"/>
<stop offset="0.91" stop-color="#138E79"/>
<stop offset="1" stop-color="#17995E"/>
</linearGradient>
<linearGradient id="paint3_linear_111_237" x1="58.3115" y1="21.5523" x2="58.3115" y2="81.6967" gradientUnits="userSpaceOnUse">
<stop stop-color="#E02DA7"/>
<stop offset="0.07" stop-color="#DA2EA8"/>
<stop offset="0.16" stop-color="#CB32AC"/>
<stop offset="0.25" stop-color="#B139B3"/>
<stop offset="0.36" stop-color="#8E43BC"/>
<stop offset="0.47" stop-color="#604FC8"/>
<stop offset="0.58" stop-color="#295FD6"/>
<stop offset="0.64" stop-color="#0569E0"/>
<stop offset="0.7" stop-color="#066DD2"/>
<stop offset="0.8" stop-color="#0B7AB0"/>
<stop offset="0.94" stop-color="#138E79"/>
<stop offset="1" stop-color="#17995E"/>
</linearGradient>
<linearGradient id="paint4_linear_111_237" x1="4.05835" y1="40.0026" x2="81.202" y2="40.0026" gradientUnits="userSpaceOnUse">
<stop stop-color="#E02DA7"/>
<stop offset="0.07" stop-color="#DA2EA8"/>
<stop offset="0.16" stop-color="#CB32AC"/>
<stop offset="0.25" stop-color="#B139B3"/>
<stop offset="0.36" stop-color="#8E43BC"/>
<stop offset="0.47" stop-color="#604FC8"/>
<stop offset="0.58" stop-color="#295FD6"/>
<stop offset="0.64" stop-color="#0569E0"/>
<stop offset="0.7" stop-color="#066DD2"/>
<stop offset="0.8" stop-color="#0B7AB0"/>
<stop offset="0.94" stop-color="#138E79"/>
<stop offset="1" stop-color="#17995E"/>
</linearGradient>
<clipPath id="clip0_111_237">
<rect width="292" height="80" fill="white"/>
</clipPath>
<clipPath id="clip1_111_237">
<rect width="83.1955" height="80" fill="white" transform="translate(4.05835)"/>
</clipPath>
</defs>
</svg>
