<svg width="84" height="80" viewBox="0 0 84 80" fill="none" xmlns="http://www.w3.org/2000/svg">
<g clip-path="url(#clip0_250_50)">
<path d="M54.2572 72.547C56.5696 72.547 58.4443 69.3873 58.4443 65.4896C58.4443 61.5919 56.5696 58.4321 54.2572 58.4321C51.9447 58.4321 50.0701 61.5919 50.0701 65.4896C50.0701 69.3873 51.9447 72.547 54.2572 72.547Z" fill="url(#paint0_linear_250_50)"/>
<path d="M35.847 21.2296C38.1595 21.2296 40.0341 18.0698 40.0341 14.1721C40.0341 10.2744 38.1595 7.11469 35.847 7.11469C33.5345 7.11469 31.6599 10.2744 31.6599 14.1721C31.6599 18.0698 33.5345 21.2296 35.847 21.2296Z" fill="url(#paint1_linear_250_50)"/>
<path d="M36.3465 55.5279C38.536 55.5279 40.311 52.5336 40.311 48.84C40.311 45.1464 38.536 42.1521 36.3465 42.1521C34.157 42.1521 32.3821 45.1464 32.3821 48.84C32.3821 52.5336 34.157 55.5279 36.3465 55.5279Z" fill="url(#paint2_linear_250_50)"/>
<path d="M54.3113 39.3312C56.5848 39.3312 58.4278 36.2227 58.4278 32.3883C58.4278 28.5538 56.5848 25.4453 54.3113 25.4453C52.0378 25.4453 50.1948 28.5538 50.1948 32.3883C50.1948 36.2227 52.0378 39.3312 54.3113 39.3312Z" fill="url(#paint3_linear_250_50)"/>
<path d="M52.9972 0H39.5398C26.1368 0 15.2644 9.98243 14.6725 22.7806H14.0588C6.34172 22.7806 0.0583496 28.7971 0.0583496 36.198C0.0583496 43.599 6.34172 49.6155 14.0588 49.6155H19.4026C20.9178 50.9895 27.9018 56.8655 36.6181 56.8655C45.3344 56.8655 51.9219 51.2914 53.6109 49.8133C55.2781 51.0416 58.8516 53.9457 65.3956 60.3682C62.4956 58.8277 58.6017 57.36 54.306 57.36C46.0079 57.36 39.214 62.7467 37.3295 64.3966C37.2263 64.4903 37.1395 64.5683 37.0689 64.6256L36.0859 65.5L35.4559 66.0985L35.3364 66.2234L35.3962 66.3795C38.4646 74.5247 46.6052 79.9948 55.6474 79.9948C61.3986 79.9948 66.8022 77.8505 70.8698 73.9522C74.9103 70.08 77.1532 64.9275 77.1749 59.447L77.1966 23.1917C77.202 10.404 66.346 0 52.9972 0ZM54.2571 71.7038C52.4976 71.7038 50.9498 68.7997 50.9498 65.4895C50.9498 62.1794 52.4922 59.2752 54.2571 59.2752C56.0221 59.2752 57.5645 62.1794 57.5645 65.4895C57.5645 68.7997 56.0221 71.7038 54.2571 71.7038ZM51.0259 59.3585C49.8691 60.8314 49.1957 63.059 49.1957 65.4948C49.1957 67.9305 49.8202 69.9655 50.8847 71.4384C45.1389 70.335 40.4468 66.7855 38.8067 65.4115C40.4631 64.0271 45.215 60.4359 51.0259 59.3585ZM57.6188 71.454C58.6941 69.9811 59.324 67.8108 59.324 65.4895C59.324 63.0434 58.6452 60.8054 57.4776 59.3325C63.3482 60.3786 68.149 64.0062 69.8217 65.4063C68.1653 66.7907 63.4242 70.3715 57.6242 71.454H57.6188ZM54.3115 73.4526C62.7454 73.4526 69.6099 67.8993 71.3531 66.3587L72.6402 65.2085L72.4556 65.0159C62.6314 54.8045 57.0866 50.3077 54.936 48.7047C63.2668 42.225 70.8915 34.1474 71.7496 33.2314L72.3632 32.6485L71.7387 32.05C71.4183 31.7481 63.8478 24.597 54.306 24.597C46.2359 24.597 39.5996 29.6819 37.4925 31.4931C32.5016 27.3294 27.6845 22.3226 24.1708 18.4295C27.3587 20.3396 31.7359 22.2133 36.6344 22.2133C46.1708 22.2133 53.7467 15.0673 54.0671 14.7603L54.6916 14.1617L54.0671 13.5632C53.7521 13.2613 46.1708 6.11021 36.6344 6.11021C31.8553 6.11021 27.5759 7.89539 24.4315 9.73782C28.7924 5.45443 34.7445 3.02908 41.0496 3.02908H52.9918C64.5864 3.02908 74.0196 12.0695 74.0196 23.1813L74.0088 59.3533C74.0088 69.0599 65.7703 76.9553 55.642 76.9553C49.1034 76.9553 43.173 73.7024 39.8657 68.3833C42.9612 70.5484 48.2345 73.437 54.2952 73.437L54.3115 73.4526ZM39.7679 8.09316C45.6494 9.12888 50.4665 12.7669 52.15 14.1721C50.4719 15.5774 45.6549 19.2154 39.7679 20.2511C40.8975 18.7782 41.5601 16.5663 41.5601 14.1721C41.5601 11.778 40.903 9.56606 39.7679 8.09316ZM33.1859 14.1721C33.1859 10.862 34.7282 7.95784 36.4932 7.95784C38.2582 7.95784 39.8005 10.862 39.8005 14.1721C39.8005 17.4823 38.2582 20.3864 36.4932 20.3864C34.7282 20.3864 33.1859 17.4823 33.1859 14.1721ZM31.4263 14.1721C31.4263 16.5298 32.0671 18.7158 33.1696 20.1887C27.4401 19.0749 22.7643 15.5357 21.1296 14.1721C22.7643 12.8033 27.4401 9.2694 33.1696 8.15562C32.0671 9.62852 31.4263 11.8197 31.4263 14.1721ZM59.2969 32.3831C59.2969 30.1295 58.7212 28.0736 57.7002 26.6216C63.4677 27.7197 68.1707 31.2797 69.8162 32.6537C68.1001 34.085 63.1799 37.7958 57.1952 38.7743C58.5094 37.3535 59.2969 34.9906 59.2969 32.3831ZM49.3206 32.3831C49.3206 34.9906 50.1081 37.343 51.4169 38.7691C47.7511 38.1654 44.5253 36.5415 42.4127 35.2404C41.2831 34.4753 40.0883 33.5905 38.8501 32.6069C40.5011 31.238 45.1932 27.7041 50.9172 26.6164C49.8963 28.0684 49.3206 30.1243 49.3206 32.3831ZM54.0236 26.2937H54.5558C56.2122 26.5487 57.559 29.2811 57.559 32.3831C57.559 35.6359 56.0384 38.4933 54.3115 38.4933C52.5845 38.4933 51.0639 35.6359 51.0639 32.3831C51.0639 29.1302 52.4107 26.5487 54.0291 26.2937H54.0236ZM33.8104 54.9554C27.7877 53.9978 22.8349 50.2609 21.1079 48.8192C22.8349 47.3723 27.8094 43.6302 33.8484 42.6778C32.5831 44.0518 31.8228 46.321 31.8228 48.8348C31.8228 51.3486 32.5668 53.571 33.8104 54.9502V54.9554ZM39.7571 48.84C39.7571 51.968 38.3016 54.716 36.6398 54.716C34.978 54.716 33.5226 51.9732 33.5226 48.84C33.5226 45.7068 34.978 42.964 36.6398 42.964C38.3016 42.964 39.7571 45.7068 39.7571 48.84ZM41.4515 48.84C41.4515 46.3314 40.6912 44.0622 39.4367 42.6882C45.4539 43.6458 50.4067 47.3827 52.1283 48.8192C50.4122 50.2557 45.4756 53.977 39.4747 54.945C40.7129 53.5658 41.4569 51.3122 41.4569 48.8348L41.4515 48.84ZM36.6181 40.7729C32.0943 40.7729 26.4572 43.4949 23.4974 45.1187C22.2972 45.7745 21.1785 46.5292 20.1575 47.3723L19.7013 46.7269C18.474 44.9209 17.8223 42.8287 17.8223 40.6792V25.3048C17.8223 22.1144 18.512 19.0384 19.8697 16.1551C22.7317 19.4965 29.5418 27.1524 36.6344 33.0128L36.8733 33.2418C37.1883 33.5437 44.7642 40.6948 54.306 40.6948C57.5319 40.6948 60.8446 39.8933 64.1791 38.3007C61.2845 41.0279 57.3961 44.5202 53.3719 47.6221C51.3191 45.8682 44.6556 40.7729 36.6127 40.7729H36.6181ZM15.9704 46.524H14.0642C8.123 46.524 3.28964 41.8919 3.28964 36.1928C3.28964 30.4938 8.123 25.8669 14.0642 25.8669H14.6508V40.6792C14.6508 42.683 15.1069 44.6972 15.9704 46.524Z" fill="url(#paint4_linear_250_50)"/>
</g>
<defs>
<linearGradient id="paint0_linear_250_50" x1="54.2572" y1="10.0605" x2="54.2572" y2="70.2049" gradientUnits="userSpaceOnUse">
<stop stop-color="#E02DA7"/>
<stop offset="0.04" stop-color="#DA2EA8"/>
<stop offset="0.09" stop-color="#CB32AC"/>
<stop offset="0.14" stop-color="#B139B3"/>
<stop offset="0.2" stop-color="#8E43BC"/>
<stop offset="0.26" stop-color="#604FC8"/>
<stop offset="0.33" stop-color="#295FD6"/>
<stop offset="0.36" stop-color="#0569E0"/>
<stop offset="0.56" stop-color="#0A76BA"/>
<stop offset="1" stop-color="#17995E"/>
</linearGradient>
<linearGradient id="paint1_linear_250_50" x1="35.847" y1="-6.49536" x2="35.847" y2="53.6491" gradientUnits="userSpaceOnUse">
<stop stop-color="#E02DA7"/>
<stop offset="0.09" stop-color="#DC2EA7"/>
<stop offset="0.18" stop-color="#D031AA"/>
<stop offset="0.27" stop-color="#BD36AF"/>
<stop offset="0.35" stop-color="#A33DB6"/>
<stop offset="0.43" stop-color="#8047BF"/>
<stop offset="0.52" stop-color="#5652CA"/>
<stop offset="0.6" stop-color="#2560D7"/>
<stop offset="0.64" stop-color="#0569E0"/>
<stop offset="0.7" stop-color="#066DD2"/>
<stop offset="0.8" stop-color="#0B7AB0"/>
<stop offset="0.94" stop-color="#138E79"/>
<stop offset="1" stop-color="#17995E"/>
</linearGradient>
<linearGradient id="paint2_linear_250_50" x1="36.3465" y1="19.715" x2="36.3465" y2="79.8595" gradientUnits="userSpaceOnUse">
<stop stop-color="#E02DA7"/>
<stop offset="0.28" stop-color="#5D50C8"/>
<stop offset="0.48" stop-color="#0569E0"/>
<stop offset="0.56" stop-color="#066DD2"/>
<stop offset="0.71" stop-color="#0B7AB0"/>
<stop offset="0.91" stop-color="#138E79"/>
<stop offset="1" stop-color="#17995E"/>
</linearGradient>
<linearGradient id="paint3_linear_250_50" x1="54.3113" y1="21.5523" x2="54.3113" y2="81.6967" gradientUnits="userSpaceOnUse">
<stop stop-color="#E02DA7"/>
<stop offset="0.07" stop-color="#DA2EA8"/>
<stop offset="0.16" stop-color="#CB32AC"/>
<stop offset="0.25" stop-color="#B139B3"/>
<stop offset="0.36" stop-color="#8E43BC"/>
<stop offset="0.47" stop-color="#604FC8"/>
<stop offset="0.58" stop-color="#295FD6"/>
<stop offset="0.64" stop-color="#0569E0"/>
<stop offset="0.7" stop-color="#066DD2"/>
<stop offset="0.8" stop-color="#0B7AB0"/>
<stop offset="0.94" stop-color="#138E79"/>
<stop offset="1" stop-color="#17995E"/>
</linearGradient>
<linearGradient id="paint4_linear_250_50" x1="0.0583496" y1="40.0026" x2="77.202" y2="40.0026" gradientUnits="userSpaceOnUse">
<stop stop-color="#E02DA7"/>
<stop offset="0.07" stop-color="#DA2EA8"/>
<stop offset="0.16" stop-color="#CB32AC"/>
<stop offset="0.25" stop-color="#B139B3"/>
<stop offset="0.36" stop-color="#8E43BC"/>
<stop offset="0.47" stop-color="#604FC8"/>
<stop offset="0.58" stop-color="#295FD6"/>
<stop offset="0.64" stop-color="#0569E0"/>
<stop offset="0.7" stop-color="#066DD2"/>
<stop offset="0.8" stop-color="#0B7AB0"/>
<stop offset="0.94" stop-color="#138E79"/>
<stop offset="1" stop-color="#17995E"/>
</linearGradient>
<clipPath id="clip0_250_50">
<rect width="83.1955" height="80" fill="white" transform="translate(0.0583496)"/>
</clipPath>
</defs>
</svg>
