<svg width="370" height="86" viewBox="0 0 370 86" fill="none" xmlns="http://www.w3.org/2000/svg">
<g filter="url(#filter0_b_901_1735)">
<path d="M0 53C0 34.1438 0 24.7157 5.85786 18.8579C11.7157 13 21.1438 13 40 13H92.5H122.44C133.199 13 143.845 10.7969 153.72 6.52645C173.68 -2.10495 196.32 -2.10496 216.28 6.52645C226.155 10.7969 236.801 13 247.56 13H277.5H330C348.856 13 358.284 13 364.142 18.8579C370 24.7157 370 34.1438 370 53V191C370 209.856 370 219.284 364.142 225.142C358.284 231 348.856 231 330 231H40C21.1438 231 11.7157 231 5.85786 225.142C0 219.284 0 209.856 0 191L0 53Z" fill="#FFEDED" fill-opacity="0.37"/>
<path d="M0.25 53C0.25 43.5648 0.250531 36.5136 0.980004 31.0879C1.70851 25.6693 3.1599 21.9094 6.03464 19.0346C8.90938 16.1599 12.6693 14.7085 18.0879 13.98C23.5136 13.2505 30.5648 13.25 40 13.25H92.5H122.44C133.234 13.25 143.913 11.0399 153.819 6.75591C173.716 -1.84811 196.284 -1.84811 216.181 6.75591C226.087 11.0399 236.766 13.25 247.56 13.25H277.5H330C339.435 13.25 346.486 13.2505 351.912 13.98C357.331 14.7085 361.091 16.1599 363.965 19.0346C366.84 21.9094 368.292 25.6693 369.02 31.0879C369.749 36.5136 369.75 43.5648 369.75 53V191C369.75 200.435 369.749 207.486 369.02 212.912C368.292 218.331 366.84 222.091 363.965 224.965C361.091 227.84 357.331 229.291 351.912 230.02C346.486 230.749 339.435 230.75 330 230.75H40C30.5648 230.75 23.5136 230.749 18.0879 230.02C12.6693 229.291 8.90938 227.84 6.03464 224.965C3.1599 222.091 1.70851 218.331 0.980004 212.912C0.250531 207.486 0.25 200.435 0.25 191V53Z" stroke="url(#paint0_linear_901_1735)" stroke-width="0.5"/>
</g>
<defs>
<filter id="filter0_b_901_1735" x="-55" y="-54.9473" width="480" height="340.947" filterUnits="userSpaceOnUse" color-interpolation-filters="sRGB">
<feFlood flood-opacity="0" result="BackgroundImageFix"/>
<feGaussianBlur in="BackgroundImageFix" stdDeviation="27.5"/>
<feComposite in2="SourceAlpha" operator="in" result="effect1_backgroundBlur_901_1735"/>
<feBlend mode="normal" in="SourceGraphic" in2="effect1_backgroundBlur_901_1735" result="shape"/>
</filter>
<linearGradient id="paint0_linear_901_1735" x1="4.03179e-05" y1="5.99987" x2="365.816" y2="106.7" gradientUnits="userSpaceOnUse">
<stop stop-color="white"/>
<stop offset="0.536458" stop-opacity="0"/>
<stop offset="1" stop-color="white"/>
</linearGradient>
</defs>
</svg>
