<svg width="370" height="329" viewBox="0 0 370 329" fill="none" xmlns="http://www.w3.org/2000/svg">
<g clip-path="url(#clip0_890_702)">
<g opacity="0.5">
<path d="M181.92 308.496C263.062 308.496 328.84 242.687 328.84 161.508C328.84 80.3292 263.062 14.5206 181.92 14.5206C100.778 14.5206 35 80.3292 35 161.508C35 242.687 100.778 308.496 181.92 308.496Z" stroke="#F4F1D0" stroke-width="3"/>
<path d="M127.68 31.4979C131.14 31.4979 133.945 28.6914 133.945 25.2293C133.945 21.7673 131.14 18.9608 127.68 18.9608C124.219 18.9608 121.414 21.7673 121.414 25.2293C121.414 28.6914 124.219 31.4979 127.68 31.4979Z" fill="#F4F1D0"/>
<path d="M328.702 161.57C332.163 161.57 334.968 158.763 334.968 155.301C334.968 151.839 332.163 149.033 328.702 149.033C325.242 149.033 322.437 151.839 322.437 155.301C322.437 158.763 325.242 161.57 328.702 161.57Z" fill="#F4F1D0"/>
<path d="M53.5362 237.837C56.9966 237.837 59.8018 235.03 59.8018 231.568C59.8018 228.106 56.9966 225.3 53.5362 225.3C50.0757 225.3 47.2705 228.106 47.2705 231.568C47.2705 235.03 50.0757 237.837 53.5362 237.837Z" fill="#F4F1D0"/>
<path d="M181.909 269.296C241.417 269.296 289.658 221.033 289.658 161.497C289.658 101.962 241.417 53.6989 181.909 53.6989C122.401 53.6989 74.1602 101.962 74.1602 161.497C74.1602 221.033 122.401 269.296 181.909 269.296Z" stroke="#F4F1D0" stroke-width="3"/>
<path d="M75.9873 149.033C79.4477 149.033 82.253 146.226 82.253 142.764C82.253 139.302 79.4477 136.496 75.9873 136.496C72.5269 136.496 69.7217 139.302 69.7217 142.764C69.7217 146.226 72.5269 149.033 75.9873 149.033Z" fill="#F4F1D0"/>
<path d="M213.31 64.93C216.77 64.93 219.575 62.1235 219.575 58.6615C219.575 55.1995 216.77 52.3929 213.31 52.3929C209.849 52.3929 207.044 55.1995 207.044 58.6615C207.044 62.1235 209.849 64.93 213.31 64.93Z" fill="#F4F1D0"/>
<path d="M234.195 262.389C237.656 262.389 240.461 259.582 240.461 256.12C240.461 252.658 237.656 249.852 234.195 249.852C230.735 249.852 227.93 252.658 227.93 256.12C227.93 259.582 230.735 262.389 234.195 262.389Z" fill="#F4F1D0"/>
<path d="M182.093 231.006C220.363 231.006 251.387 199.968 251.387 161.681C251.387 123.393 220.363 92.3548 182.093 92.3548C143.823 92.3548 112.799 123.393 112.799 161.681C112.799 199.968 143.823 231.006 182.093 231.006Z" stroke="#F4F1D0" stroke-width="3"/>
<path d="M244.638 199.181C248.098 199.181 250.903 196.375 250.903 192.913C250.903 189.45 248.098 186.644 244.638 186.644C241.177 186.644 238.372 189.45 238.372 192.913C238.372 196.375 241.177 199.181 244.638 199.181Z" fill="#F4F1D0"/>
<path d="M150.653 230.001C154.114 230.001 156.919 227.195 156.919 223.733C156.919 220.271 154.114 217.464 150.653 217.464C147.193 217.464 144.388 220.271 144.388 223.733C144.388 227.195 147.193 230.001 150.653 230.001Z" fill="#F4F1D0"/>
<path d="M150.653 106.198C154.114 106.198 156.919 103.391 156.919 99.9294C156.919 96.4673 154.114 93.6608 150.653 93.6608C147.193 93.6608 144.388 96.4673 144.388 99.9294C144.388 103.391 147.193 106.198 150.653 106.198Z" fill="#F4F1D0"/>
<path d="M182.093 192.351C199.024 192.351 212.749 178.62 212.749 161.681C212.749 144.742 199.024 131.011 182.093 131.011C165.162 131.011 151.437 144.742 151.437 161.681C151.437 178.62 165.162 192.351 182.093 192.351Z" stroke="#F4F1D0" stroke-width="3"/>
<path d="M203.389 145.376C206.849 145.376 209.654 142.57 209.654 139.108C209.654 135.646 206.849 132.839 203.389 132.839C199.928 132.839 197.123 135.646 197.123 139.108C197.123 142.57 199.928 145.376 203.389 145.376Z" fill="#F4F1D0"/>
<path d="M187.725 197.614C191.185 197.614 193.99 194.807 193.99 191.345C193.99 187.883 191.185 185.077 187.725 185.077C184.264 185.077 181.459 187.883 181.459 191.345C181.459 194.807 184.264 197.614 187.725 197.614Z" fill="#F4F1D0"/>
<path d="M152.22 161.57C155.68 161.57 158.485 158.763 158.485 155.301C158.485 151.839 155.68 149.033 152.22 149.033C148.759 149.033 145.954 151.839 145.954 155.301C145.954 158.763 148.759 161.57 152.22 161.57Z" fill="#F4F1D0"/>
</g>
<g filter="url(#filter0_d_890_702)">
<path d="M0 40C0 17.9086 17.9086 0 40 0H330C352.091 0 370 17.9086 370 40V283C370 305.091 352.091 323 330 323H40C17.9086 323 0 305.091 0 283V40Z" fill="#181429" fill-opacity="0"/>
</g>
</g>
<defs>
<filter id="filter0_d_890_702" x="-4" y="0" width="378" height="331" filterUnits="userSpaceOnUse" color-interpolation-filters="sRGB">
<feFlood flood-opacity="0" result="BackgroundImageFix"/>
<feColorMatrix in="SourceAlpha" type="matrix" values="0 0 0 0 0 0 0 0 0 0 0 0 0 0 0 0 0 0 127 0" result="hardAlpha"/>
<feOffset dy="4"/>
<feGaussianBlur stdDeviation="2"/>
<feComposite in2="hardAlpha" operator="out"/>
<feColorMatrix type="matrix" values="0 0 0 0 0 0 0 0 0 0 0 0 0 0 0 0 0 0 0.25 0"/>
<feBlend mode="normal" in2="BackgroundImageFix" result="effect1_dropShadow_890_702"/>
<feBlend mode="normal" in="SourceGraphic" in2="effect1_dropShadow_890_702" result="shape"/>
</filter>
<clipPath id="clip0_890_702">
<rect width="370" height="329" rx="40" fill="white"/>
</clipPath>
</defs>
</svg>
