<svg width="370" height="329" viewBox="0 0 370 329" fill="none" xmlns="http://www.w3.org/2000/svg">
<g clip-path="url(#clip0_899_375)">
<g opacity="0.6" clip-path="url(#clip1_899_375)">
<path d="M185.678 312.157L113.27 239.866L88.4336 264.661L115.809 264.685V271.586H76.5965V232.436H83.5077L83.5324 259.767L108.367 234.972L34.8887 161.613L106.942 89.6782L82.819 65.5953L82.7948 92.9261H75.8832V53.7775H115.096V60.6774L87.7207 60.7021L111.843 84.7845L184.965 11.7817L258.087 84.7845L282.566 60.3457L255.19 60.3216V53.4207H294.403V92.5697H287.492L287.467 65.2389L262.989 89.6777L335.754 162.325L262.989 234.972L287.824 259.767L287.848 232.436H294.76V271.585H255.547V264.686L282.922 264.661L258.087 239.866L185.678 312.157V312.157ZM321.494 162.325L184.965 26.0179L49.1481 161.613L185.678 297.921L321.494 162.325Z" fill="#F4F1D0" stroke="#F4F1D0" stroke-width="5"/>
<path d="M185.5 190.185C200.674 190.185 212.975 177.904 212.975 162.755C212.975 147.606 200.674 135.324 185.5 135.324C170.325 135.324 158.024 147.606 158.024 162.755C158.024 177.904 170.325 190.185 185.5 190.185Z" fill="black" fill-opacity="0.2"/>
</g>
<g filter="url(#filter0_d_899_375)">
<path d="M0 40C0 17.9086 17.9086 0 40 0H330C352.091 0 370 17.9086 370 40V283C370 305.091 352.091 323 330 323H40C17.9086 323 0 305.091 0 283V40Z" fill="#181429" fill-opacity="0.2"/>
</g>
</g>
<defs>
<filter id="filter0_d_899_375" x="-4" y="0" width="378" height="331" filterUnits="userSpaceOnUse" color-interpolation-filters="sRGB">
<feFlood flood-opacity="0" result="BackgroundImageFix"/>
<feColorMatrix in="SourceAlpha" type="matrix" values="0 0 0 0 0 0 0 0 0 0 0 0 0 0 0 0 0 0 127 0" result="hardAlpha"/>
<feOffset dy="4"/>
<feGaussianBlur stdDeviation="2"/>
<feComposite in2="hardAlpha" operator="out"/>
<feColorMatrix type="matrix" values="0 0 0 0 0 0 0 0 0 0 0 0 0 0 0 0 0 0 0.25 0"/>
<feBlend mode="normal" in2="BackgroundImageFix" result="effect1_dropShadow_899_375"/>
<feBlend mode="normal" in="SourceGraphic" in2="effect1_dropShadow_899_375" result="shape"/>
</filter>
<clipPath id="clip0_899_375">
<rect width="370" height="329" rx="40" fill="white"/>
</clipPath>
<clipPath id="clip1_899_375">
<rect width="305" height="304" fill="white" transform="translate(33 10)"/>
</clipPath>
</defs>
</svg>
