<svg width="318" height="318" viewBox="0 0 318 318" fill="none" xmlns="http://www.w3.org/2000/svg">
<g opacity="0.25" clip-path="url(#clip0_899_599)">
<path d="M38.8821 19.7882C38.8821 30.3335 30.3335 38.8821 19.7882 38.8821C9.24296 38.8821 0.694336 30.3335 0.694336 19.7882C0.694336 9.24296 9.24296 0.694336 19.7882 0.694336C30.3335 0.694336 38.8821 9.24296 38.8821 19.7882Z" fill="#D1D1D1" fill-opacity="0.33"/>
<path d="M85.4018 19.7882C85.4018 30.3335 76.8531 38.8821 66.3079 38.8821C55.7626 38.8821 47.214 30.3335 47.214 19.7882C47.214 9.24296 55.7626 0.694336 66.3079 0.694336C76.8531 0.694336 85.4018 9.24296 85.4018 19.7882Z" fill="#D1D1D1" fill-opacity="0.33"/>
<path d="M112.828 38.8821C123.373 38.8821 131.921 30.3335 131.921 19.7882C131.921 9.24296 123.373 0.694336 112.828 0.694336C102.282 0.694336 93.7336 9.24296 93.7336 19.7882C93.7336 30.3335 102.282 38.8821 112.828 38.8821Z" fill="#D1D1D1" fill-opacity="0.33"/>
<path d="M178.441 19.7882C178.441 30.3335 169.892 38.8821 159.347 38.8821C148.802 38.8821 140.253 30.3335 140.253 19.7882C140.253 9.24296 148.802 0.694336 159.347 0.694336C169.892 0.694336 178.441 9.24296 178.441 19.7882Z" fill="#D1D1D1" fill-opacity="0.33"/>
<path d="M205.867 38.8821C216.412 38.8821 224.961 30.3335 224.961 19.7882C224.961 9.24296 216.412 0.694336 205.867 0.694336C195.322 0.694336 186.773 9.24296 186.773 19.7882C186.773 30.3335 195.322 38.8821 205.867 38.8821Z" fill="#D1D1D1" fill-opacity="0.33"/>
<path d="M271.48 19.7882C271.48 30.3335 262.932 38.8821 252.386 38.8821C241.841 38.8821 233.293 30.3335 233.293 19.7882C233.293 9.24296 241.841 0.694336 252.386 0.694336C262.932 0.694336 271.48 9.24296 271.48 19.7882Z" fill="#D1D1D1" fill-opacity="0.33"/>
<path d="M298.906 38.8821C309.451 38.8821 318 30.3335 318 19.7882C318 9.24296 309.451 0.694336 298.906 0.694336C288.361 0.694336 279.812 9.24296 279.812 19.7882C279.812 30.3335 288.361 38.8821 298.906 38.8821Z" fill="#D1D1D1" fill-opacity="0.33"/>
<path d="M38.8821 66.3079C38.8821 76.8531 30.3335 85.4018 19.7882 85.4018C9.24296 85.4018 0.694336 76.8531 0.694336 66.3079C0.694336 55.7626 9.24296 47.214 19.7882 47.214C30.3335 47.214 38.8821 55.7626 38.8821 66.3079Z" fill="#D1D1D1" fill-opacity="0.33"/>
<path d="M66.3079 85.4018C76.8531 85.4018 85.4018 76.8531 85.4018 66.3079C85.4018 55.7626 76.8531 47.214 66.3079 47.214C55.7626 47.214 47.214 55.7626 47.214 66.3079C47.214 76.8531 55.7626 85.4018 66.3079 85.4018Z" fill="#D1D1D1" fill-opacity="0.33"/>
<path d="M131.921 66.3079C131.921 76.8531 123.373 85.4018 112.828 85.4018C102.282 85.4018 93.7336 76.8531 93.7336 66.3079C93.7336 55.7626 102.282 47.214 112.828 47.214C123.373 47.214 131.921 55.7626 131.921 66.3079Z" fill="#D1D1D1" fill-opacity="0.33"/>
<path d="M159.347 85.4018C169.892 85.4018 178.441 76.8531 178.441 66.3079C178.441 55.7626 169.892 47.214 159.347 47.214C148.802 47.214 140.253 55.7626 140.253 66.3079C140.253 76.8531 148.802 85.4018 159.347 85.4018Z" fill="#D1D1D1" fill-opacity="0.33"/>
<path d="M224.961 66.3079C224.961 76.8531 216.412 85.4018 205.867 85.4018C195.322 85.4018 186.773 76.8531 186.773 66.3079C186.773 55.7626 195.322 47.214 205.867 47.214C216.412 47.214 224.961 55.7626 224.961 66.3079Z" fill="#D1D1D1" fill-opacity="0.33"/>
<path d="M252.386 85.4018C262.932 85.4018 271.48 76.8531 271.48 66.3079C271.48 55.7626 262.932 47.214 252.386 47.214C241.841 47.214 233.293 55.7626 233.293 66.3079C233.293 76.8531 241.841 85.4018 252.386 85.4018Z" fill="#D1D1D1" fill-opacity="0.33"/>
<path d="M318 66.3079C318 76.8531 309.451 85.4018 298.906 85.4018C288.361 85.4018 279.812 76.8531 279.812 66.3079C279.812 55.7626 288.361 47.214 298.906 47.214C309.451 47.214 318 55.7626 318 66.3079Z" fill="#D1D1D1" fill-opacity="0.33"/>
<path d="M19.7882 131.921C30.3335 131.921 38.8821 123.373 38.8821 112.828C38.8821 102.282 30.3335 93.7336 19.7882 93.7336C9.24296 93.7336 0.694336 102.282 0.694336 112.828C0.694336 123.373 9.24296 131.921 19.7882 131.921Z" fill="#D1D1D1" fill-opacity="0.33"/>
<path d="M85.4018 112.828C85.4018 123.373 76.8531 131.921 66.3079 131.921C55.7626 131.921 47.214 123.373 47.214 112.828C47.214 102.282 55.7626 93.7336 66.3079 93.7336C76.8531 93.7336 85.4018 102.282 85.4018 112.828Z" fill="#D1D1D1" fill-opacity="0.33"/>
<path d="M112.828 131.921C123.373 131.921 131.921 123.373 131.921 112.828C131.921 102.282 123.373 93.7336 112.828 93.7336C102.282 93.7336 93.7336 102.282 93.7336 112.828C93.7336 123.373 102.282 131.921 112.828 131.921Z" fill="#D1D1D1" fill-opacity="0.33"/>
<path d="M178.441 112.828C178.441 123.373 169.892 131.921 159.347 131.921C148.802 131.921 140.253 123.373 140.253 112.828C140.253 102.282 148.802 93.7336 159.347 93.7336C169.892 93.7336 178.441 102.282 178.441 112.828Z" fill="#D1D1D1" fill-opacity="0.33"/>
<path d="M205.867 131.921C216.412 131.921 224.961 123.373 224.961 112.828C224.961 102.282 216.412 93.7336 205.867 93.7336C195.322 93.7336 186.773 102.282 186.773 112.828C186.773 123.373 195.322 131.921 205.867 131.921Z" fill="#D1D1D1" fill-opacity="0.33"/>
<path d="M271.48 112.828C271.48 123.373 262.932 131.921 252.386 131.921C241.841 131.921 233.293 123.373 233.293 112.828C233.293 102.282 241.841 93.7336 252.386 93.7336C262.932 93.7336 271.48 102.282 271.48 112.828Z" fill="#D1D1D1" fill-opacity="0.33"/>
<path d="M298.906 131.921C309.451 131.921 318 123.373 318 112.828C318 102.282 309.451 93.7336 298.906 93.7336C288.361 93.7336 279.812 102.282 279.812 112.828C279.812 123.373 288.361 131.921 298.906 131.921Z" fill="#D1D1D1" fill-opacity="0.33"/>
<circle cx="19.7882" cy="159.347" r="19.0939" fill="#F4F1D0" fill-opacity="0.2"/>
<circle cx="66.3078" cy="159.347" r="19.0939" fill="#F4F1D0" fill-opacity="0.6"/>
<circle cx="112.827" cy="159.347" r="19.0939" fill="#F4F1D0" fill-opacity="0.9"/>
<circle cx="159.347" cy="159.347" r="19.0939" fill="#F4F1D0"/>
<circle cx="205.866" cy="159.347" r="19.0939" fill="#F4F1D0" fill-opacity="0.9"/>
<circle cx="252.387" cy="159.347" r="19.0939" fill="#F4F1D0" fill-opacity="0.6"/>
<circle cx="298.906" cy="159.347" r="19.0939" fill="#F4F1D0" fill-opacity="0.2"/>
<path d="M38.8821 205.867C38.8821 216.412 30.3335 224.961 19.7882 224.961C9.24296 224.961 0.694336 216.412 0.694336 205.867C0.694336 195.322 9.24296 186.773 19.7882 186.773C30.3335 186.773 38.8821 195.322 38.8821 205.867Z" fill="#D1D1D1" fill-opacity="0.33"/>
<path d="M85.4018 205.867C85.4018 216.412 76.8531 224.961 66.3079 224.961C55.7626 224.961 47.214 216.412 47.214 205.867C47.214 195.322 55.7626 186.773 66.3079 186.773C76.8531 186.773 85.4018 195.322 85.4018 205.867Z" fill="#D1D1D1" fill-opacity="0.33"/>
<path d="M112.828 224.961C123.373 224.961 131.921 216.412 131.921 205.867C131.921 195.322 123.373 186.773 112.828 186.773C102.282 186.773 93.7336 195.322 93.7336 205.867C93.7336 216.412 102.282 224.961 112.828 224.961Z" fill="#D1D1D1" fill-opacity="0.33"/>
<path d="M178.441 205.867C178.441 216.412 169.892 224.961 159.347 224.961C148.802 224.961 140.253 216.412 140.253 205.867C140.253 195.322 148.802 186.773 159.347 186.773C169.892 186.773 178.441 195.322 178.441 205.867Z" fill="#D1D1D1" fill-opacity="0.33"/>
<path d="M205.867 224.961C216.412 224.961 224.961 216.412 224.961 205.867C224.961 195.322 216.412 186.773 205.867 186.773C195.322 186.773 186.773 195.322 186.773 205.867C186.773 216.412 195.322 224.961 205.867 224.961Z" fill="#D1D1D1" fill-opacity="0.33"/>
<path d="M271.48 205.867C271.48 216.412 262.932 224.961 252.386 224.961C241.841 224.961 233.293 216.412 233.293 205.867C233.293 195.322 241.841 186.773 252.386 186.773C262.932 186.773 271.48 195.322 271.48 205.867Z" fill="#D1D1D1" fill-opacity="0.33"/>
<path d="M298.906 224.961C309.451 224.961 318 216.412 318 205.867C318 195.322 309.451 186.773 298.906 186.773C288.361 186.773 279.812 195.322 279.812 205.867C279.812 216.412 288.361 224.961 298.906 224.961Z" fill="#D1D1D1" fill-opacity="0.33"/>
<path d="M38.8821 252.386C38.8821 262.932 30.3335 271.48 19.7882 271.48C9.24296 271.48 0.694336 262.932 0.694336 252.386C0.694336 241.841 9.24296 233.293 19.7882 233.293C30.3335 233.293 38.8821 241.841 38.8821 252.386Z" fill="#D1D1D1" fill-opacity="0.33"/>
<path d="M66.3079 271.48C76.8531 271.48 85.4018 262.932 85.4018 252.386C85.4018 241.841 76.8531 233.293 66.3079 233.293C55.7626 233.293 47.214 241.841 47.214 252.386C47.214 262.932 55.7626 271.48 66.3079 271.48Z" fill="#D1D1D1" fill-opacity="0.33"/>
<path d="M131.921 252.386C131.921 262.932 123.373 271.48 112.828 271.48C102.282 271.48 93.7336 262.932 93.7336 252.386C93.7336 241.841 102.282 233.293 112.828 233.293C123.373 233.293 131.921 241.841 131.921 252.386Z" fill="#D1D1D1" fill-opacity="0.33"/>
<path d="M159.347 271.48C169.892 271.48 178.441 262.932 178.441 252.386C178.441 241.841 169.892 233.293 159.347 233.293C148.802 233.293 140.253 241.841 140.253 252.386C140.253 262.932 148.802 271.48 159.347 271.48Z" fill="#D1D1D1" fill-opacity="0.33"/>
<path d="M224.961 252.386C224.961 262.932 216.412 271.48 205.867 271.48C195.322 271.48 186.773 262.932 186.773 252.386C186.773 241.841 195.322 233.293 205.867 233.293C216.412 233.293 224.961 241.841 224.961 252.386Z" fill="#D1D1D1" fill-opacity="0.33"/>
<path d="M252.386 271.48C262.932 271.48 271.48 262.932 271.48 252.386C271.48 241.841 262.932 233.293 252.386 233.293C241.841 233.293 233.293 241.841 233.293 252.386C233.293 262.932 241.841 271.48 252.386 271.48Z" fill="#D1D1D1" fill-opacity="0.33"/>
<path d="M318 252.386C318 262.932 309.451 271.48 298.906 271.48C288.361 271.48 279.812 262.932 279.812 252.386C279.812 241.841 288.361 233.293 298.906 233.293C309.451 233.293 318 241.841 318 252.386Z" fill="#D1D1D1" fill-opacity="0.33"/>
<path d="M19.7882 318C30.3335 318 38.8821 309.451 38.8821 298.906C38.8821 288.361 30.3335 279.812 19.7882 279.812C9.24296 279.812 0.694336 288.361 0.694336 298.906C0.694336 309.451 9.24296 318 19.7882 318Z" fill="#D1D1D1" fill-opacity="0.33"/>
<path d="M85.4018 298.906C85.4018 309.451 76.8531 318 66.3079 318C55.7626 318 47.214 309.451 47.214 298.906C47.214 288.361 55.7626 279.812 66.3079 279.812C76.8531 279.812 85.4018 288.361 85.4018 298.906Z" fill="#D1D1D1" fill-opacity="0.33"/>
<path d="M112.828 318C123.373 318 131.921 309.451 131.921 298.906C131.921 288.361 123.373 279.812 112.828 279.812C102.282 279.812 93.7336 288.361 93.7336 298.906C93.7336 309.451 102.282 318 112.828 318Z" fill="#D1D1D1" fill-opacity="0.33"/>
<path d="M178.441 298.906C178.441 309.451 169.892 318 159.347 318C148.802 318 140.253 309.451 140.253 298.906C140.253 288.361 148.802 279.812 159.347 279.812C169.892 279.812 178.441 288.361 178.441 298.906Z" fill="#D1D1D1" fill-opacity="0.33"/>
<path d="M205.867 318C216.412 318 224.961 309.451 224.961 298.906C224.961 288.361 216.412 279.812 205.867 279.812C195.322 279.812 186.773 288.361 186.773 298.906C186.773 309.451 195.322 318 205.867 318Z" fill="#D1D1D1" fill-opacity="0.33"/>
<path d="M271.48 298.906C271.48 309.451 262.932 318 252.386 318C241.841 318 233.293 309.451 233.293 298.906C233.293 288.361 241.841 279.812 252.386 279.812C262.932 279.812 271.48 288.361 271.48 298.906Z" fill="#D1D1D1" fill-opacity="0.33"/>
<path d="M298.906 318C309.451 318 318 309.451 318 298.906C318 288.361 309.451 279.812 298.906 279.812C288.361 279.812 279.812 288.361 279.812 298.906C279.812 309.451 288.361 318 298.906 318Z" fill="#D1D1D1" fill-opacity="0.33"/>
</g>
<defs>
<clipPath id="clip0_899_599">
<rect width="318" height="318" fill="white"/>
</clipPath>
</defs>
</svg>
